<svg width="10" height="14" viewBox="0 0 10 14" fill="none" xmlns="http://www.w3.org/2000/svg">
    <path d="M4.11357 12.9138C4.11357 13.3557 4.47175 13.7138 4.91357 13.7138C5.3554 13.7138 5.71357 13.3557 5.71357 12.9138H4.11357ZM5.71357 1.08643C5.71357 0.644598 5.3554 0.286426 4.91357 0.286426C4.47175 0.286426 4.11357 0.644598 4.11357 1.08643H5.71357ZM8.37867 5.1088C8.70721 5.40422 9.21303 5.37737 9.50845 5.04883C9.80387 4.72029 9.77702 4.21447 9.44848 3.91905L8.37867 5.1088ZM5.24357 1.21393L5.77848 0.619047L5.77701 0.617733L5.24357 1.21393ZM4.58357 1.21393L4.05014 0.617731L4.04867 0.619049L4.58357 1.21393ZM0.378671 3.91905C0.0501296 4.21447 0.0232784 4.72029 0.318697 5.04883C0.614116 5.37737 1.11994 5.40422 1.44848 5.1088L0.378671 3.91905ZM5.71357 12.9138V1.08643H4.11357V12.9138H5.71357ZM9.44848 3.91905L5.77848 0.619049L4.70867 1.8088L8.37867 5.1088L9.44848 3.91905ZM5.77701 0.617733C5.2833 0.17599 4.54385 0.17599 4.05014 0.617733L5.11701 1.81012C5.0033 1.91186 4.82385 1.91186 4.71014 1.81012L5.77701 0.617733ZM4.04867 0.619049L0.378671 3.91905L1.44848 5.1088L5.11848 1.8088L4.04867 0.619049Z"
          fill="currentColor"/>
</svg>
