<svg width="10" height="14" viewBox="0 0 10 14" fill="none" xmlns="http://www.w3.org/2000/svg">
    <path d="M5.71357 1.08643C5.71357 0.644598 5.3554 0.286426 4.91357 0.286426C4.47175 0.286426 4.11357 0.644598 4.11357 1.08643H5.71357ZM4.11357 12.9138C4.11357 13.3557 4.47175 13.7138 4.91357 13.7138C5.3554 13.7138 5.71357 13.3557 5.71357 12.9138H4.11357ZM1.44848 8.89145C1.11994 8.59603 0.614116 8.62288 0.318697 8.95142C0.0232784 9.27997 0.0501296 9.78579 0.378671 10.0812L1.44848 8.89145ZM4.58357 12.7863L4.04867 13.3812L4.05014 13.3825L4.58357 12.7863ZM5.24357 12.7863L5.77701 13.3825L5.77848 13.3812L5.24357 12.7863ZM9.44848 10.0812C9.77702 9.78579 9.80387 9.27997 9.50845 8.95142C9.21303 8.62288 8.70721 8.59603 8.37867 8.89145L9.44848 10.0812ZM4.11357 1.08643V12.9138H5.71357V1.08643H4.11357ZM0.378671 10.0812L4.04867 13.3812L5.11848 12.1915L1.44848 8.89145L0.378671 10.0812ZM4.05014 13.3825C4.54385 13.8243 5.2833 13.8243 5.77701 13.3825L4.71014 12.1901C4.82385 12.0884 5.0033 12.0884 5.11701 12.1901L4.05014 13.3825ZM5.77848 13.3812L9.44848 10.0812L8.37867 8.89145L4.70867 12.1915L5.77848 13.3812Z"
          fill="currentColor"/>
</svg>
