<svg width="10" height="10" viewBox="0 0 10 10" fill="none" xmlns="http://www.w3.org/2000/svg">
    <path d="M1 4.25C0.585786 4.25 0.25 4.58579 0.25 5C0.25 5.41421 0.585786 5.75 1 5.75V4.25ZM9 5.75C9.41421 5.75 9.75 5.41421 9.75 5C9.75 4.58579 9.41421 4.25 9 4.25V5.75ZM5.75 1C5.75 0.585786 5.41421 0.25 5 0.25C4.58579 0.25 4.25 0.585786 4.25 1H5.75ZM4.25 9C4.25 9.41421 4.58579 9.75 5 9.75C5.41421 9.75 5.75 9.41421 5.75 9H4.25ZM1 5.75H9V4.25H1V5.75ZM4.25 1V9H5.75V1H4.25Z"
          fill="currentColor"/>
</svg>
