<svg viewBox="0 0 24 24" width="24" xmlns="http://www.w3.org/2000/svg">
    <g fill="none" fill-rule="evenodd">
        <circle cx="12" cy="12.5" r="8.7" stroke="currentColor" stroke-width="1.6"/>
        <path d="m11.92 14.29c.46 0 .71-.25.81-.68.08-.54.28-.82 1.13-1.32.91-.53 1.38-1.19 1.38-2.17 0-1.5-1.23-2.5-3.06-2.5-1.39 0-2.42.54-2.83 1.39-.13.25-.19.49-.19.77 0 .49.31.81.82.81.4 0 .69-.18.85-.6.2-.57.63-.88 1.26-.88.71 0 1.2.44 1.2 1.07 0 .59-.25.92-1.08 1.41-.76.45-1.16.95-1.16 1.71v.09c0 .53.32.9.87.9zm.02 2.87c.58 0 1.05-.44 1.05-1.01s-.47-1.01-1.05-1.01-1.06.44-1.06 1.01.48 1.01 1.06 1.01z"
              fill="currentColor"/>
    </g>
</svg>
