<svg viewBox="0 0 45 65" fill="none" xmlns="http://www.w3.org/2000/svg">
    <path fill-rule="evenodd" clip-rule="evenodd"
          d="M32.5726 14.8192C37.2949 21.0738 40.7658 26.7125 42.6315 31.1616C47.9933 43.9461 43.9993 57.3645 33.2008 62.8448C28.7602 65.0982 20.1648 65.696 15.0611 64.1058C6.02906 61.2925 0 52.9489 0 43.2634C0 38.7774 0.866018 36.0043 3.54243 31.9205C5.69887 28.6291 11.7406 22.5854 14.4582 20.9998C16.0775 20.0552 15.9579 19.857 16.7189 24.7436C17.2357 28.0648 18.142 30.1701 19.0547 30.1701C19.9506 30.1701 21.6717 28.0083 22.1541 26.2773C23.4359 21.6752 22.4793 14.2946 18.7671 0.145645C18.3698 -1.36822 28.4001 9.29249 32.5726 14.8192ZM16.3058 40.8245C18.1742 40.1621 21.9449 38.8261 24.6851 37.8559C30.1489 35.9212 31.4117 35.7962 31.6092 37.1705C31.6812 37.6685 30.3387 42.0367 28.6266 46.8777C25.745 55.0258 25.4325 55.6796 24.4202 55.6796C23.5089 55.6796 23.0007 55.056 21.3782 51.9479C19.4424 48.2403 19.4071 48.2055 15.8873 46.4411C10.6119 43.7971 10.6848 42.8174 16.3058 40.8245Z"
          fill="currentColor"/>
</svg>
