<svg height="1.15em" viewBox="0 0 21 18" fill="none" xmlns="http://www.w3.org/2000/svg" style="vertical-align: bottom">
    <path d="M19.0848 4.3999L19.9536 5.7644C20.0188 5.8668 20.011 6.00024 19.9342 6.09404L10.2756 17.8988C10.1653 18.0336 9.96111 18.0336 9.85081 17.8988L0.192228 6.09404C0.115468 6.00024 0.107593 5.8668 0.172797 5.7644L1.04159 4.3999H19.0848Z"
          fill="#47A9F1"/>
    <path d="M19.6185 5.238L17.5728 2.02511C17.5438 1.97968 17.5025 1.94371 17.4538 1.92162L13.2768 0.0244388C13.2413 0.00831826 13.2028 0 13.1639 0H6.96252C6.9236 0 6.88514 0.00831826 6.84967 0.0244388L2.6726 1.92162C2.62393 1.94371 2.58258 1.97968 2.55363 2.02511L0.507935 5.238H19.6185Z"
          fill="#7EC7FF"/>
    <path d="M10.0637 3.77148L13.8568 8.86983H6.27063L10.0637 3.77148Z" fill="#75C1FF"/>
    <path d="M11.4646 16.4457L10.2756 17.8989C10.1653 18.0337 9.96109 18.0337 9.85079 17.8989L8.66339 16.4477L6.27063 8.86987H13.8568L11.4646 16.4457Z"
          fill="#8DCCFC"/>
    <path d="M10.0637 3.77122L3.3396 2.75854L6.27061 8.86956L10.0637 3.77122Z" fill="#BFE2F7"/>
    <path d="M0.0634766 5.93625L3.33931 2.75854L6.27032 8.86956L0.0634766 5.93625Z" fill="#87CBFF"/>
    <path d="M0.0634766 5.93643L3.33931 2.75873L2.61516 1.95557L0.0634766 5.93643Z" fill="#47A9F1"/>
    <path d="M10.0632 3.77122L16.7873 2.75854L13.8563 8.86956L10.0632 3.77122Z" fill="#4BAEF7"/>
    <path d="M20.0635 5.93625L16.7877 2.75854L13.8567 8.86956L20.0635 5.93625Z" fill="#6EBEFF"/>
    <path d="M20.0634 5.93643L16.7876 2.75873L17.5118 1.95557L20.0634 5.93643Z" fill="#389BE3"/>
    <text opacity="0">TON</text>
</svg>
